<svg width="400" height="120" viewBox="0 0 400 120"
     xmlns="http://www.w3.org/2000/svg" role="img">
  <title>burnctl — AI burn rate monitor</title>
  <g transform="translate(18, 8)">
    <path d="M42 98 C26 88 12 70 16 48 C20 30 34 36 38 20
             C40 12 39 4 42 0 C46 10 44 22 48 30
             C52 18 53 8 56 2 C62 16 58 32 64 42
             C69 52 76 46 77 54 C80 68 73 86 57 96 Z"
          fill="#1E40AF" opacity="0.7"/>
    <path d="M42 90 C30 80 20 64 24 46 C28 32 38 36 41 24
             C43 16 42 8 44 2 C47 12 46 24 49 32
             C52 22 53 12 56 5 C61 18 58 34 63 44
             C67 52 72 48 73 56 C75 68 69 84 55 92 Z"
          fill="#2563EB"/>
  </g>
  <text x="105" y="72" font-family="Arial, sans-serif"
        font-weight="700" font-size="52" fill="#1E40AF"
        letter-spacing="-1">burnctl</text>
  <text x="106" y="96" font-family="Arial, sans-serif"
        font-weight="400" font-size="14" fill="#6B7280"
        letter-spacing="1.5">AI BURN RATE MONITOR</text>
</svg>
